<?xml version="1.0" encoding="UTF-8"?>
<svg width="176px" height="33px" viewBox="0 0 176 33" version="1.1" xmlns="http://www.w3.org/2000/svg" xmlns:xlink="http://www.w3.org/1999/xlink">
    <!-- Generator: sketchtool 49.2 (51160) - http://www.bohemiancoding.com/sketch -->
    <title>4A3989E2-A854-42B2-81EF-381C6A88663E</title>
    <desc>Created with sketchtool.</desc>
    <defs>
        <polygon id="path-1" points="8.6627907e-05 0.746551351 111.681049 0.746551351 111.681049 32 8.6627907e-05 32"></polygon>
    </defs>
    <g id="Page-1" stroke="none" stroke-width="1" fill="none" fill-rule="evenodd">
        <g id="Startseite-Visitor-Copy-2" transform="translate(-156.000000, -29.000000)">
            <g id="LOGO" transform="translate(156.000000, 29.000000)">
                <polygon id="Fill-1" fill="#173F8A" points="116 33 120 33 120 15 116 15"></polygon>
                <polygon id="Fill-2" fill="#173F8A" points="42 15 42 33 63 33 63 29.9995538 46.3454516 29.9995538 46.3454516 15"></polygon>
                <polygon id="Fill-3" fill="#173F8A" points="66 15 66 33 87 33 87 29.9995538 70.3461349 29.9995538 70.3461349 25.4997769 81.207164 25.4997769 81.207164 22.4993307 70.3461349 22.4993307 70.3461349 17.9995538 87 17.9995538 87 15"></polygon>
                <polygon id="Fill-4" fill="#173F8A" points="107.969285 15 101.500855 21.4792503 95.0315707 15 90 15 98.983787 24.0004462 90 33 95.0315707 33 101.500855 26.5207497 107.969285 33 113 33 104.016213 24.0004462 113 15"></polygon>
                <polygon id="Fill-5" fill="#173F8A" points="171.687019 15 171.687019 28.8464971 157.312981 15 153 15 153 33 157.312981 33 157.312981 19.1535029 171.687019 33 176 33 176 15"></polygon>
                <g id="Group-13">
                    <path d="M143.053514,29.0922378 C143.656444,29.0922378 144.145026,28.6044541 144.145026,28.0016432 L144.145026,18.5538595 C144.145026,17.9510486 143.656444,17.4632649 143.053514,17.4632649 L130.676985,17.4632649 C130.074055,17.4632649 129.585473,17.9510486 129.585473,18.5538595 L129.585473,28.0016432 C129.585473,28.6044541 130.074055,29.0922378 130.676985,29.0922378 L143.053514,29.0922378 Z M125.216828,16.009427 C125.216828,15.2068324 125.869136,14.5564541 126.673043,14.5564541 L147.05659,14.5564541 C147.861363,14.5564541 148.512805,15.2068324 148.512805,16.009427 L148.512805,30.5460757 C148.512805,31.3486703 147.861363,31.9999135 147.05659,31.9999135 L126.673043,31.9999135 C125.869136,31.9999135 125.216828,31.3486703 125.216828,30.5460757 L125.216828,16.009427 Z" id="Fill-6" fill="#173F8A"></path>
                    <g id="Group-10">
                        <mask id="mask-2" fill="white">
                            <use xlink:href="#path-1"></use>
                        </mask>
                        <g id="Clip-9"></g>
                        <path d="M12.8227494,20.6315243 L18.9282843,11.6490378 L22.0503541,16.2432 C18.3989878,17.8700108 15.2821157,19.3817946 12.8227494,20.6315243 M111.498866,3.15779459 C111.498866,3.15779459 104.839778,0.746551351 86.632325,0.746551351 C63.441168,0.746551351 40.6918134,8.2899027 25.4028541,14.7850378 L18.9282843,5.83455135 L8.6627907e-05,32.000173 L5.0964064,32.000173 L7.43622616,28.5562811 C9.63397616,27.2416865 15.7914878,23.6550919 24.2784238,19.520173 L32.7601622,32.000173 L37.856482,32.000173 L27.6586448,17.9037405 C43.6978017,10.3820108 66.3769878,1.83628108 86.632325,1.83628108 C104.802528,1.83628108 111.135028,3.78655135 111.135028,3.78655135 C111.308284,3.88687568 111.530918,3.82806486 111.632273,3.65336216 C111.732761,3.48038919 111.672988,3.25725405 111.498866,3.15779459" id="Fill-8" fill="#173F8A" mask="url(#mask-2)"></path>
                    </g>
                    <path d="M117.936532,12.3760432 C117.735555,12.3760432 117.573561,12.2125838 117.571828,12.0119351 C117.56923,11.5405838 118.161765,10.5849081 116.67523,8.01539459 L116.674363,8.01366486 C115.188695,5.44328649 114.063398,5.47788108 113.655381,5.23917838 C113.482125,5.13798919 113.422352,4.91658378 113.521974,4.74274595 L113.52284,4.74274595 L113.523706,4.74361081 C113.624195,4.56977297 113.845962,4.51096216 114.020951,4.61042162 C114.431567,4.84307027 114.964328,5.83334054 117.936532,5.83334054 L117.938265,5.83334054 C120.910468,5.83334054 121.44323,4.84307027 121.853846,4.61042162 C122.028834,4.51096216 122.251468,4.56977297 122.351956,4.74361081 L122.35109,4.74361081 C122.450712,4.91744865 122.390939,5.13885405 122.217683,5.24090811 C121.809666,5.47874595 120.684369,5.44415135 119.197834,8.01452973 L119.196968,8.01625946 C117.711299,10.585773 118.303834,11.5423135 118.300369,12.0136649 C118.299503,12.2143135 118.137509,12.3769081 117.936532,12.3769081 L117.936532,12.3760432 Z" id="Fill-11" fill="#CF1E2E"></path>
                </g>
            </g>
        </g>
    </g>
</svg>