<svg width="176" height="50" xmlns="http://www.w3.org/2000/svg" xml:space="preserve" style="fill-rule:evenodd;clip-rule:evenodd;stroke-linejoin:round;stroke-miterlimit:2"><path style="fill:#233e93;fill-rule:nonzero" d="M147.269 18.993h5.388v21.559h-5.388zM81.694 36.959h-20.66V18.993h-5.39v21.559h26.05v-3.593ZM85.287 40.552V18.993h26.051v3.593H90.676v5.39h13.475v3.593H90.676v5.39h20.662v3.593H85.287ZM143.676 18.993h-6.288l-8.084 7.761-8.085-7.761h-6.288l11.228 10.78-11.228 10.779h6.288l8.085-7.761 8.084 7.761h6.288l-11.229-10.779 11.229-10.78ZM216.436 18.993v16.584l-17.965-16.584h-5.391v21.559h5.391V23.968l17.965 16.584h5.389V18.993h-5.389ZM158.946 20.79c0-.993.805-1.797 1.796-1.797h25.152c.993 0 1.797.804 1.797 1.797v17.965c0 .993-.804 1.797-1.797 1.797h-25.152a1.797 1.797 0 0 1-1.796-1.797V20.79Zm22.008 16.169c.744 0 1.348-.603 1.348-1.348V23.934c0-.744-.604-1.348-1.348-1.348h-15.27c-.745 0-1.348.604-1.348 1.348v11.677c0 .745.603 1.348 1.348 1.348h15.27Z" transform="matrix(.77864 0 0 .78415 -3.459 -1.51)"/><path d="M142.019 4.905s-8.215-2.979-30.681-2.979c-28.616 0-56.686 9.323-75.551 17.35l-7.99-11.062L4.442 40.552h6.288l2.888-4.256c2.712-1.625 10.309-6.057 20.781-11.168l10.466 15.424h6.288L38.57 23.131c19.79-9.296 47.774-19.858 72.768-19.858 22.42 0 30.232 2.41 30.232 2.41a.449.449 0 1 0 .449-.778ZM20.264 26.502 27.797 15.4l3.853 5.679a248.264 248.264 0 0 0-11.386 5.423Z" style="fill:#233e93;fill-rule:nonzero" transform="matrix(.77864 0 0 .78415 -3.459 -1.51)"/><path d="M149.963 16.299a.453.453 0 0 1-.45-.45c-.003-.582.728-1.763-1.107-4.94v-.002c-1.834-3.176-3.222-3.133-3.725-3.428a.45.45 0 0 1-.164-.614v.001h.001a.45.45 0 0 1 .614-.164c.506.287 1.163 1.511 4.831 1.511h.002c3.668 0 4.325-1.224 4.832-1.511a.45.45 0 0 1 .614.164h-.001l-.001.001a.451.451 0 0 1-.164.614c-.503.294-1.892.252-3.726 3.428v.002c-1.833 3.176-1.103 4.358-1.107 4.94a.45.45 0 0 1-.449.449v-.001Z" style="fill:#c92034;fill-rule:nonzero" transform="matrix(.77864 0 0 .78415 -3.459 -1.51)"/><path d="M227.282 23.954a3.198 3.198 0 0 1-3.192-3.194 3.207 3.207 0 0 1 3.192-3.194 3.208 3.208 0 0 1 3.195 3.194 3.19 3.19 0 0 1-3.195 3.194Zm0-5.911c-1.479 0-2.717 1.235-2.717 2.717s1.238 2.719 2.717 2.719c1.483 0 2.719-1.237 2.719-2.719 0-1.482-1.236-2.717-2.719-2.717Zm.654 4.321-.517-1.359h-.734v1.359h-.612v-3.371h1.129c.775 0 1.372.177 1.372 1.088 0 .489-.19.639-.584.829l.625 1.454h-.679Zm-.571-2.786h-.68v.883h.734c.272 0 .517-.122.517-.434 0-.34-.286-.449-.571-.449Z" style="fill:#233e93;fill-rule:nonzero" transform="matrix(.77864 0 0 .78415 -3.459 -1.51)"/><path d="m12.866 58.066-2.232-6.245h-.038l-2.268 6.245h4.538Zm-1.239-7.858 5.233 13.39h-1.969l-1.463-4.032H7.765l-1.501 4.032H4.446l5.213-13.39h1.968ZM18.829 61.432c.15.243.346.438.59.581.245.144.519.247.826.309.306.063.622.094.947.094.25 0 .512-.018.787-.056.275-.038.528-.106.76-.206.231-.1.422-.247.572-.441.149-.193.225-.44.225-.741 0-.412-.157-.724-.469-.937-.313-.213-.703-.385-1.172-.516s-.978-.25-1.528-.356a7.818 7.818 0 0 1-1.529-.451 3.144 3.144 0 0 1-1.171-.815c-.314-.35-.469-.837-.469-1.463 0-.487.108-.906.328-1.256.218-.35.499-.634.844-.854a3.877 3.877 0 0 1 1.162-.487c.431-.106.859-.16 1.285-.16.55 0 1.056.047 1.518.141.463.094.873.257 1.229.488.356.231.641.544.853.937.212.394.337.885.375 1.472h-1.594c-.025-.312-.106-.571-.243-.778a1.6 1.6 0 0 0-.526-.496 2.386 2.386 0 0 0-.703-.272 3.58 3.58 0 0 0-.778-.085c-.238 0-.479.019-.722.056a2.44 2.44 0 0 0-.666.197c-.2.094-.362.219-.487.375-.125.157-.188.36-.188.61 0 .275.097.503.29.684.195.182.442.331.742.45.299.119.637.219 1.012.3.375.081.75.166 1.125.253.401.088.791.194 1.172.319.382.125.719.291 1.013.497.294.206.531.466.713.779.18.312.271.7.271 1.162 0 .588-.121 1.075-.365 1.463a2.855 2.855 0 0 1-.956.937 4.004 4.004 0 0 1-1.332.497 7.862 7.862 0 0 1-1.472.141 6.789 6.789 0 0 1-1.538-.169 3.772 3.772 0 0 1-1.294-.553 2.818 2.818 0 0 1-.9-1.013c-.225-.419-.35-.928-.375-1.528h1.594c.012.35.094.647.244.891ZM30.718 53.902v1.407h-1.931v6.02c0 .187.015.337.046.45.032.112.091.2.178.262.088.063.21.104.366.122.157.019.36.028.61.028h.731v1.407H29.5c-.414 0-.767-.029-1.06-.084-.294-.057-.532-.16-.713-.311-.182-.149-.315-.361-.403-.637-.088-.274-.131-.637-.131-1.087v-6.17h-1.651v-1.407h1.651v-2.906h1.594v2.906h1.931ZM33.832 53.902v2.045h.037c.387-.788.862-1.369 1.424-1.744.564-.375 1.276-.551 2.139-.526v1.688c-.638 0-1.182.088-1.632.263-.45.175-.812.431-1.088.769a3.163 3.163 0 0 0-.599 1.228 6.636 6.636 0 0 0-.188 1.66v4.313h-1.594v-9.696h1.501ZM44.659 58.591c-.201.149-.463.258-.788.327-.326.068-.665.124-1.022.168-.356.043-.716.093-1.078.149a4.006 4.006 0 0 0-.976.27 1.765 1.765 0 0 0-.703.532c-.181.23-.271.545-.271.943 0 .261.053.481.159.662.105.18.243.327.412.439.169.111.366.193.591.242.225.05.463.075.713.075.525 0 .974-.072 1.349-.215a2.85 2.85 0 0 0 .919-.541c.238-.218.413-.454.526-.709.112-.255.169-.495.169-.719v-1.623Zm2.588 4.97c-.276.162-.657.243-1.145.243-.412 0-.74-.115-.984-.347-.243-.231-.366-.609-.366-1.135a3.801 3.801 0 0 1-1.528 1.135 5.038 5.038 0 0 1-1.885.347c-.437 0-.853-.05-1.247-.15a2.883 2.883 0 0 1-1.022-.468 2.25 2.25 0 0 1-.684-.835c-.169-.344-.254-.76-.254-1.247 0-.55.094-1 .282-1.351.187-.35.434-.634.741-.853a3.406 3.406 0 0 1 1.05-.497c.393-.112.796-.206 1.21-.281a14.85 14.85 0 0 1 1.247-.197c.393-.044.74-.106 1.041-.188.299-.081.537-.199.712-.356.174-.156.262-.384.262-.684 0-.35-.065-.631-.197-.844a1.35 1.35 0 0 0-.506-.488 2.075 2.075 0 0 0-.694-.225 5.302 5.302 0 0 0-.759-.056c-.676 0-1.238.128-1.688.384-.45.257-.694.741-.731 1.454h-1.595c.026-.6.151-1.106.375-1.519a2.86 2.86 0 0 1 .901-1.004c.375-.255.803-.44 1.285-.553.48-.112.996-.169 1.547-.169.437 0 .872.032 1.302.094.432.063.823.19 1.173.384.35.193.631.465.844.814.212.349.318.805.318 1.366v4.977c0 .375.022.649.066.824.044.174.19.262.441.262.137 0 .3-.025.488-.076v1.239ZM56.604 51.709h-7.689v-1.501h9.789v1.501l-8.308 10.389h8.533v1.5H48.277v-1.5l8.327-10.389ZM66.791 56.753a2.745 2.745 0 0 0-.583-.872 2.734 2.734 0 0 0-1.958-.797c-.414 0-.786.072-1.117.216a2.56 2.56 0 0 0-.853.59 2.842 2.842 0 0 0-.563.872 3.34 3.34 0 0 0-.243 1.06h5.569a3.277 3.277 0 0 0-.252-1.069Zm.383 6.226c-.724.55-1.637.825-2.737.825-.775 0-1.447-.125-2.017-.375a3.983 3.983 0 0 1-1.434-1.05 4.46 4.46 0 0 1-.872-1.613 7.759 7.759 0 0 1-.328-2.044c0-.738.113-1.412.338-2.025a4.833 4.833 0 0 1 .947-1.594c.406-.45.887-.8 1.443-1.05a4.413 4.413 0 0 1 1.829-.376c.863 0 1.578.179 2.147.535.569.356 1.025.81 1.369 1.359.344.551.581 1.151.713 1.801a7.73 7.73 0 0 1 .159 1.856h-7.257c-.013.425.037.829.15 1.21.112.381.293.719.543 1.013.25.293.569.528.957.703.387.175.844.262 1.369.262.675 0 1.228-.156 1.66-.469.43-.312.715-.787.852-1.425h1.576c-.212 1.088-.681 1.907-1.407 2.457ZM71.6 53.902v1.539h.038c.662-1.176 1.712-1.764 3.151-1.764.637 0 1.169.088 1.593.263.425.175.769.419 1.032.731.262.313.447.685.553 1.116.106.431.159.91.159 1.435v6.376h-1.593v-6.564c0-.6-.176-1.075-.526-1.425-.35-.35-.832-.525-1.444-.525-.487 0-.909.075-1.266.225a2.37 2.37 0 0 0-.89.638 2.73 2.73 0 0 0-.534.965c-.12.369-.179.773-.179 1.21v5.476H70.1v-9.696h1.5ZM86.2 56.753a2.76 2.76 0 0 0-.582-.872 2.739 2.739 0 0 0-1.959-.797c-.413 0-.785.072-1.117.216a2.56 2.56 0 0 0-.853.59 2.86 2.86 0 0 0-.563.872 3.34 3.34 0 0 0-.243 1.06h5.57a3.304 3.304 0 0 0-.253-1.069Zm.383 6.226c-.724.55-1.637.825-2.737.825-.775 0-1.447-.125-2.016-.375a3.978 3.978 0 0 1-1.435-1.05 4.46 4.46 0 0 1-.872-1.613 7.8 7.8 0 0 1-.328-2.044c0-.738.113-1.412.338-2.025a4.833 4.833 0 0 1 .947-1.594 4.304 4.304 0 0 1 3.272-1.426c.863 0 1.579.179 2.147.535.569.356 1.025.81 1.369 1.359.344.551.581 1.151.713 1.801.131.65.185 1.269.159 1.856h-7.257a3.85 3.85 0 0 0 .15 1.21c.112.381.294.719.544 1.013.25.293.568.528.956.703.387.175.844.262 1.369.262.676 0 1.228-.156 1.66-.469.431-.312.715-.787.853-1.425h1.575c-.212 1.088-.681 1.907-1.407 2.457ZM95.341 55.59c-.4-.337-.937-.506-1.613-.506-.575 0-1.057.107-1.443.319a2.567 2.567 0 0 0-.929.844c-.231.35-.398.753-.497 1.209-.1.457-.15.928-.15 1.416 0 .45.053.888.16 1.313.105.425.271.803.497 1.134.224.331.518.598.881.797.362.2.794.3 1.294.3.788 0 1.403-.206 1.847-.619.444-.412.715-.993.816-1.744h1.631c-.175 1.2-.622 2.126-1.34 2.776-.72.65-1.698.975-2.936.975-.737 0-1.391-.119-1.959-.357a3.784 3.784 0 0 1-1.426-1.012 4.362 4.362 0 0 1-.862-1.566 6.523 6.523 0 0 1-.291-1.997c0-.725.094-1.403.281-2.035a4.707 4.707 0 0 1 .854-1.65 4 4 0 0 1 1.434-1.106c.576-.269 1.244-.404 2.007-.404.55 0 1.066.066 1.547.198.481.131.906.334 1.275.609.369.275.672.622.91 1.04.237.42.387.917.45 1.492h-1.651c-.125-.613-.387-1.088-.787-1.426ZM105.261 58.591c-.2.149-.463.258-.788.327-.326.068-.665.124-1.022.168-.356.043-.716.093-1.078.149a4.006 4.006 0 0 0-.976.27 1.765 1.765 0 0 0-.703.532c-.181.23-.271.545-.271.943 0 .261.053.481.159.662.105.18.243.327.412.439.169.111.366.193.591.242.226.05.463.075.713.075.525 0 .974-.072 1.349-.215a2.85 2.85 0 0 0 .919-.541c.238-.218.413-.454.526-.709.112-.255.169-.495.169-.719v-1.623Zm2.588 4.97c-.276.162-.657.243-1.145.243-.412 0-.74-.115-.984-.347-.243-.231-.366-.609-.366-1.135a3.801 3.801 0 0 1-1.528 1.135 5.038 5.038 0 0 1-1.885.347c-.437 0-.853-.05-1.247-.15a2.888 2.888 0 0 1-1.023-.468 2.248 2.248 0 0 1-.683-.835c-.169-.344-.254-.76-.254-1.247 0-.55.094-1 .281-1.351.188-.35.435-.634.741-.853a3.422 3.422 0 0 1 1.051-.497c.393-.112.796-.206 1.21-.281a14.85 14.85 0 0 1 1.247-.197c.393-.044.74-.106 1.041-.188.299-.081.537-.199.712-.356.174-.156.262-.384.262-.684 0-.35-.065-.631-.197-.844a1.35 1.35 0 0 0-.506-.488 2.075 2.075 0 0 0-.694-.225 5.302 5.302 0 0 0-.759-.056c-.676 0-1.238.128-1.687.384-.451.257-.695.741-.732 1.454h-1.595c.025-.6.15-1.106.375-1.519a2.85 2.85 0 0 1 .901-1.004c.375-.255.803-.44 1.285-.553.48-.112.996-.169 1.547-.169.437 0 .872.032 1.302.094.432.063.823.19 1.173.384.35.193.631.465.844.814.212.349.318.805.318 1.366v4.977c0 .375.022.649.066.824.044.174.19.262.441.262.137 0 .3-.025.488-.076v1.239ZM121.557 56.284a2.57 2.57 0 0 0 .984-.365 2 2 0 0 0 .675-.732c.169-.306.254-.703.254-1.191 0-.675-.188-1.225-.563-1.65-.375-.425-.982-.637-1.819-.637h-4.426v4.669h3.713a7.13 7.13 0 0 0 1.182-.094Zm-.375-6.076c1.275 0 2.272.313 2.991.938.719.625 1.078 1.482 1.078 2.569 0 .813-.185 1.525-.554 2.138-.368.612-.959 1.031-1.771 1.256v.038c.386.075.703.2.947.375.243.175.438.384.581.628.144.244.25.516.318.816.07.3.122.613.161.937.024.326.043.657.055.995.013.337.044.668.094.993.05.325.122.635.216.928.094.294.234.554.422.779h-1.988c-.126-.137-.21-.324-.254-.563a5.81 5.81 0 0 1-.084-.797l-.038-.947a6.314 6.314 0 0 0-.112-.994 9.754 9.754 0 0 0-.187-.928 2.188 2.188 0 0 0-.357-.769 1.746 1.746 0 0 0-.638-.525c-.261-.131-.612-.197-1.049-.197h-4.351v5.72h-1.781v-13.39h6.301ZM133.071 58.591c-.2.149-.463.258-.788.327a12.43 12.43 0 0 1-1.021.168c-.357.043-.716.093-1.078.149a3.99 3.99 0 0 0-.977.27 1.769 1.769 0 0 0-.702.532c-.182.23-.272.545-.272.943 0 .261.052.481.16.662.105.18.243.327.411.439.17.111.367.193.591.242.226.05.463.075.713.075.526 0 .975-.072 1.35-.215a2.85 2.85 0 0 0 .919-.541c.237-.218.413-.454.525-.709a1.78 1.78 0 0 0 .169-.719v-1.623Zm2.588 4.97c-.275.162-.656.243-1.144.243-.413 0-.741-.115-.985-.347-.243-.231-.365-.609-.365-1.135-.438.526-.947.904-1.528 1.135a5.038 5.038 0 0 1-1.885.347 5.03 5.03 0 0 1-1.247-.15 2.872 2.872 0 0 1-1.023-.468 2.248 2.248 0 0 1-.683-.835c-.169-.344-.254-.76-.254-1.247 0-.55.094-1 .281-1.351.188-.35.435-.634.741-.853a3.428 3.428 0 0 1 1.05-.497 12.81 12.81 0 0 1 1.209-.281c.439-.087.855-.153 1.248-.197.394-.044.74-.106 1.041-.188.3-.081.537-.199.712-.356.175-.156.263-.384.263-.684 0-.35-.066-.631-.197-.844a1.35 1.35 0 0 0-.506-.488 2.08 2.08 0 0 0-.695-.225 5.288 5.288 0 0 0-.758-.056c-.677 0-1.239.128-1.688.384-.45.257-.694.741-.731 1.454h-1.595c.025-.6.15-1.106.375-1.519.225-.413.525-.747.9-1.004a3.81 3.81 0 0 1 1.284-.553 6.823 6.823 0 0 1 1.547-.169c.439 0 .873.032 1.304.094.432.063.822.19 1.173.384.349.193.631.465.844.814.212.349.318.805.318 1.366v4.977c0 .375.021.649.065.824.044.174.191.262.442.262.137 0 .3-.025.487-.076v1.239ZM138.656 53.902v2.045h.037c.388-.788.863-1.369 1.425-1.744.564-.375 1.276-.551 2.139-.526v1.688c-.638 0-1.182.088-1.632.263a2.57 2.57 0 0 0-1.088.769 3.164 3.164 0 0 0-.6 1.228 6.638 6.638 0 0 0-.187 1.66v4.313h-1.595v-9.696h1.501ZM149.858 56.753a2.742 2.742 0 0 0-.582-.872 2.734 2.734 0 0 0-1.959-.797 2.77 2.77 0 0 0-1.116.216 2.56 2.56 0 0 0-.853.59 2.842 2.842 0 0 0-.563.872 3.288 3.288 0 0 0-.243 1.06h5.569a3.253 3.253 0 0 0-.253-1.069Zm.384 6.226c-.724.55-1.638.825-2.737.825-.776 0-1.447-.125-2.017-.375a3.974 3.974 0 0 1-1.434-1.05 4.46 4.46 0 0 1-.872-1.613 7.8 7.8 0 0 1-.329-2.044c0-.738.114-1.412.338-2.025a4.836 4.836 0 0 1 .948-1.594c.406-.45.887-.8 1.443-1.05a4.413 4.413 0 0 1 1.829-.376c.862 0 1.578.179 2.147.535.569.356 1.025.81 1.369 1.359a5.42 5.42 0 0 1 .713 1.801c.13.65.184 1.269.159 1.856h-7.257a3.85 3.85 0 0 0 .149 1.21c.113.381.294.719.544 1.013.25.293.569.528.956.703.388.175.845.262 1.37.262.675 0 1.228-.156 1.66-.469.43-.312.715-.787.852-1.425h1.575c-.212 1.088-.68 1.907-1.406 2.457ZM163.744 62.098c.2 0 .45-.016.75-.047s.619-.107.957-.225a4.387 4.387 0 0 0 1.003-.516 3.39 3.39 0 0 0 .891-.919c.262-.388.478-.872.647-1.453.168-.581.253-1.285.253-2.11 0-.8-.078-1.516-.234-2.147-.157-.631-.413-1.169-.77-1.613a3.38 3.38 0 0 0-1.378-1.013c-.562-.231-1.257-.346-2.081-.346h-3.001v10.389h2.963Zm-.149-11.89c2.062 0 3.649.525 4.762 1.575 1.113 1.051 1.669 2.651 1.669 4.801 0 1.126-.125 2.123-.375 2.991-.25.869-.637 1.601-1.163 2.194-.524.594-1.193 1.047-2.006 1.36-.813.312-1.775.469-2.887.469H159v-13.39h4.595ZM172.989 53.902v9.696h-1.594v-9.696h1.594Zm-1.594-1.743v-1.951h1.594v1.951h-1.594ZM176.327 61.432c.15.243.347.438.591.581.244.144.518.247.825.309.307.063.622.094.947.094.25 0 .512-.018.787-.056.276-.038.529-.106.76-.206.232-.1.422-.247.573-.441.149-.193.224-.44.224-.741 0-.412-.156-.724-.469-.937-.312-.213-.703-.385-1.171-.516-.469-.131-.979-.25-1.529-.356a7.808 7.808 0 0 1-1.528-.451 3.148 3.148 0 0 1-1.172-.815c-.313-.35-.469-.837-.469-1.463 0-.487.109-.906.328-1.256.218-.35.499-.634.844-.854a3.9 3.9 0 0 1 1.162-.487c.432-.106.86-.16 1.285-.16.55 0 1.056.047 1.519.141.463.094.872.257 1.228.488.357.231.641.544.854.937.212.394.337.885.375 1.472h-1.595c-.024-.312-.105-.571-.243-.778a1.596 1.596 0 0 0-.525-.496 2.397 2.397 0 0 0-.703-.272 3.582 3.582 0 0 0-.779-.085c-.237 0-.478.019-.721.056a2.43 2.43 0 0 0-.666.197 1.34 1.34 0 0 0-.488.375c-.125.157-.187.36-.187.61 0 .275.096.503.29.684.194.182.441.331.741.45s.638.219 1.013.3c.375.081.75.166 1.125.253.4.088.791.194 1.172.319.381.125.718.291 1.012.497.294.206.532.466.713.779.181.312.272.7.272 1.162 0 .588-.121 1.075-.366 1.463a2.846 2.846 0 0 1-.956.937 3.996 3.996 0 0 1-1.332.497 7.852 7.852 0 0 1-1.471.141 6.789 6.789 0 0 1-1.538-.169 3.764 3.764 0 0 1-1.294-.553 2.83 2.83 0 0 1-.901-1.013c-.224-.419-.349-.928-.375-1.528h1.595c.012.35.094.647.243.891ZM190.57 56.753a2.742 2.742 0 0 0-.582-.872 2.734 2.734 0 0 0-1.959-.797 2.77 2.77 0 0 0-1.116.216 2.56 2.56 0 0 0-.853.59 2.842 2.842 0 0 0-.563.872 3.288 3.288 0 0 0-.243 1.06h5.569a3.253 3.253 0 0 0-.253-1.069Zm.384 6.226c-.725.55-1.638.825-2.737.825-.776 0-1.448-.125-2.017-.375a3.974 3.974 0 0 1-1.434-1.05 4.46 4.46 0 0 1-.872-1.613 7.8 7.8 0 0 1-.329-2.044c0-.738.114-1.412.338-2.025a4.836 4.836 0 0 1 .948-1.594c.406-.45.887-.8 1.443-1.05a4.413 4.413 0 0 1 1.829-.376c.862 0 1.578.179 2.146.535.57.356 1.026.81 1.37 1.359a5.42 5.42 0 0 1 .713 1.801c.13.65.184 1.269.159 1.856h-7.257a3.85 3.85 0 0 0 .149 1.21c.113.381.294.719.544 1.013.25.293.569.528.956.703.388.175.845.262 1.369.262.676 0 1.229-.156 1.661-.469.43-.312.714-.787.852-1.425h1.575c-.212 1.088-.68 1.907-1.406 2.457ZM200.189 58.591c-.2.149-.462.258-.788.327a12.43 12.43 0 0 1-1.021.168c-.357.043-.716.093-1.078.149a3.98 3.98 0 0 0-.976.27 1.765 1.765 0 0 0-.703.532c-.182.23-.271.545-.271.943 0 .261.052.481.159.662.105.18.243.327.412.439.169.111.366.193.591.242.225.05.463.075.713.075.525 0 .974-.072 1.349-.215a2.85 2.85 0 0 0 .919-.541c.237-.218.413-.454.525-.709a1.78 1.78 0 0 0 .169-.719v-1.623Zm2.588 4.97c-.275.162-.656.243-1.144.243-.412 0-.74-.115-.985-.347-.243-.231-.365-.609-.365-1.135a3.801 3.801 0 0 1-1.528 1.135 5.038 5.038 0 0 1-1.885.347c-.437 0-.853-.05-1.247-.15a2.875 2.875 0 0 1-1.022-.468 2.24 2.24 0 0 1-.684-.835c-.169-.344-.254-.76-.254-1.247 0-.55.094-1 .281-1.351.188-.35.435-.634.742-.853a3.411 3.411 0 0 1 1.049-.497c.394-.112.797-.206 1.21-.281.438-.087.854-.153 1.247-.197a6.88 6.88 0 0 0 1.041-.188c.3-.081.537-.199.712-.356.175-.156.263-.384.263-.684 0-.35-.065-.631-.197-.844a1.35 1.35 0 0 0-.506-.488 2.082 2.082 0 0 0-.694-.225 5.302 5.302 0 0 0-.759-.056c-.676 0-1.239.128-1.688.384-.45.257-.694.741-.731 1.454h-1.595c.025-.6.15-1.106.375-1.519.226-.413.525-.747.9-1.004.375-.255.804-.44 1.286-.553.48-.112.996-.169 1.546-.169.438 0 .873.032 1.303.094.432.063.822.19 1.173.384.35.193.631.465.844.814.212.349.318.805.318 1.366v4.977c0 .375.022.649.066.824.044.174.19.262.441.262.137 0 .3-.025.487-.076v1.239ZM205.522 61.432c.151.243.347.438.591.581.244.144.519.247.825.309.307.063.623.094.948.094.25 0 .511-.018.787-.056.275-.038.528-.106.76-.206.231-.1.421-.247.572-.441.149-.193.224-.44.224-.741 0-.412-.156-.724-.468-.937-.313-.213-.703-.385-1.172-.516a19.29 19.29 0 0 0-1.528-.356 7.818 7.818 0 0 1-1.529-.451 3.148 3.148 0 0 1-1.172-.815c-.313-.35-.468-.837-.468-1.463 0-.487.108-.906.328-1.256.217-.35.499-.634.843-.854a3.894 3.894 0 0 1 1.163-.487c.431-.106.859-.16 1.285-.16.55 0 1.055.047 1.518.141a3.53 3.53 0 0 1 1.229.488c.356.231.64.544.853.937.212.394.337.885.375 1.472h-1.594c-.025-.312-.106-.571-.244-.778a1.586 1.586 0 0 0-.525-.496 2.386 2.386 0 0 0-.703-.272 3.58 3.58 0 0 0-.778-.085c-.238 0-.479.019-.722.056a2.44 2.44 0 0 0-.666.197c-.2.094-.362.219-.487.375-.125.157-.188.36-.188.61 0 .275.097.503.29.684.194.182.442.331.741.45.3.119.638.219 1.013.3.375.081.75.166 1.125.253.4.088.791.194 1.172.319.382.125.719.291 1.013.497.294.206.531.466.712.779.181.312.272.7.272 1.162 0 .588-.121 1.075-.365 1.463a2.855 2.855 0 0 1-.956.937 4.004 4.004 0 0 1-1.332.497 7.87 7.87 0 0 1-1.472.141 6.789 6.789 0 0 1-1.538-.169 3.772 3.772 0 0 1-1.294-.553 2.818 2.818 0 0 1-.9-1.013c-.225-.419-.35-.928-.375-1.528h1.594c.012.35.094.647.243.891ZM219.766 56.753a2.76 2.76 0 0 0-.582-.872 2.72 2.72 0 0 0-1.959-.797c-.414 0-.786.072-1.117.216a2.56 2.56 0 0 0-.853.59 2.86 2.86 0 0 0-.563.872 3.34 3.34 0 0 0-.243 1.06h5.57a3.304 3.304 0 0 0-.253-1.069Zm.383 6.226c-.724.55-1.637.825-2.737.825-.775 0-1.447-.125-2.017-.375a3.983 3.983 0 0 1-1.434-1.05 4.46 4.46 0 0 1-.872-1.613 7.759 7.759 0 0 1-.328-2.044c0-.738.113-1.412.338-2.025a4.833 4.833 0 0 1 .947-1.594 4.304 4.304 0 0 1 3.272-1.426c.863 0 1.578.179 2.147.535.569.356 1.025.81 1.369 1.359.344.551.581 1.151.713 1.801a7.73 7.73 0 0 1 .159 1.856h-7.257c-.013.425.037.829.15 1.21.112.381.294.719.544 1.013.25.293.568.528.956.703.387.175.844.262 1.369.262.676 0 1.228-.156 1.66-.469.431-.312.715-.787.852-1.425h1.576c-.212 1.088-.681 1.907-1.407 2.457Z" style="fill:#818789;fill-rule:nonzero" transform="matrix(.77864 0 0 .78415 -3.459 -1.51)"/></svg>
