<?xml version="1.0" encoding="utf-8"?>
<!-- Generator: Adobe Illustrator 16.0.0, SVG Export Plug-In . SVG Version: 6.00 Build 0)  -->
<!DOCTYPE svg PUBLIC "-//W3C//DTD SVG 1.1//EN" "http://www.w3.org/Graphics/SVG/1.1/DTD/svg11.dtd">
<svg version="1.1" id="Ebene_1" xmlns="http://www.w3.org/2000/svg" xmlns:xlink="http://www.w3.org/1999/xlink" x="0px" y="0px"
	 width="50px" height="61px" viewBox="0 0 50 61" enable-background="new 0 0 50 61" xml:space="preserve">
<g id="XMLID_36_">
	<polygon id="XMLID_33_" fill="#0B61AA" points="11.691,20.71 11.691,29.248 9.668,29.248 9.668,25.763 6.963,25.763 6.963,29.248 
		4.94,29.248 4.94,20.71 6.963,20.71 6.963,23.986 9.668,23.986 9.668,20.71 	"/>
	<polygon id="XMLID_12_" fill="#0B61AA" points="45.14,27.482 45.14,29.248 40.11,29.248 40.11,20.71 42.133,20.71 42.133,27.482 	
		"/>
	<polygon id="XMLID_30_" fill="#0B61AA" points="16.414,22.404 16.414,24.064 19.412,24.064 19.412,25.684 16.414,25.684 
		16.414,27.554 19.568,27.554 19.568,29.248 14.391,29.248 14.391,20.71 19.568,20.71 19.568,22.404 	"/>
	<polygon id="XMLID_18_" fill="#0B61AA" points="29.346,29.29 26.982,29.29 25.292,26.422 23.6,29.29 21.236,29.29 23.993,25 
		21.463,20.71 23.714,20.71 25.292,23.511 26.868,20.71 29.119,20.71 26.59,25 	"/>
	<path id="XMLID_21_" fill="#0B61AA" d="M37.715,27.708l-0.536-1.621l-1.778-5.377h-2.374l-1.778,5.377l-0.535,1.621l-0.523,1.583
		h1.948l0.523-1.583h3.104l0.523,1.583h1.948L37.715,27.708z M33.198,26.087l1.017-3.074l1.017,3.074H33.198z"/>
	<g id="XMLID_20_">
		<path id="XMLID_71_" fill="#0B61AA" d="M15.517,5.073v10.412H5.08v2.023h10.437c1.118,0,2.023-0.905,2.023-2.023V5.073V5.048
			h-2.023V5.073z"/>
		<path id="XMLID_73_" fill="#0B61AA" d="M34.483,5.073V5.048H32.46v0.025v10.412c0,1.118,0.905,2.023,2.023,2.023H44.92v-2.023
			H34.483V5.073z"/>
		<path id="XMLID_76_" fill="#0B61AA" d="M48.937,13.582c-0.019-0.02-0.027-0.028-0.027-0.028L36.267,0.911
			C35.356,0,33.822,0,33.822,0H25h-8.822c0,0-1.534,0-2.445,0.911L1.09,13.554c0,0-0.009,0.009-0.027,0.028
			C0.895,13.764,0,14.799,0,16.301V25v8.699c0,1.501,0.895,2.538,1.063,2.719c0.019,0.02,0.027,0.028,0.027,0.028l12.643,12.643
			C14.644,50,16.178,50,16.178,50H25h8.822c0,0,1.534,0,2.445-0.911L48.91,36.446c0,0,0.009-0.009,0.027-0.028
			C49.105,36.237,50,35.201,50,33.699V25v-8.699C50,14.799,49.105,13.764,48.937,13.582z M47.977,33.907
			c0,0.534-0.242,0.842-0.302,0.911c-0.009,0.01-0.014,0.015-0.014,0.015L34.985,47.509c-0.007,0.006-0.014,0.013-0.021,0.021
			c-0.439,0.44-1.035,0.447-1.035,0.447H25h-8.929c0,0-0.596-0.007-1.035-0.447c-0.008-0.008-0.015-0.015-0.021-0.021L2.338,34.833
			c0,0-0.004-0.004-0.014-0.015c-0.06-0.069-0.302-0.377-0.302-0.911V25v-8.907c0-0.534,0.242-0.842,0.302-0.911
			c0.009-0.01,0.014-0.015,0.014-0.015L15.015,2.491c0.007-0.006,0.014-0.013,0.021-0.021c0.439-0.44,1.035-0.447,1.035-0.447H25
			h8.929c0,0,0.596,0.007,1.035,0.447c0.008,0.008,0.015,0.015,0.021,0.021l12.677,12.676c0,0,0.004,0.004,0.014,0.015
			c0.06,0.069,0.302,0.377,0.302,0.911V25V33.907z"/>
		<path id="XMLID_77_" fill="#0B61AA" d="M15.517,32.492H5.08v2.023h10.437v10.412v0.025h2.023v-0.025V34.515
			C17.54,33.397,16.634,32.492,15.517,32.492z"/>
		<path id="XMLID_78_" fill="#0B61AA" d="M32.46,34.515v10.412v0.025h2.023v-0.025V34.515H44.92v-2.023H34.483
			C33.366,32.492,32.46,33.397,32.46,34.515z"/>
	</g>
	<g id="XMLID_2_">
		<path id="XMLID_5_" fill="#0B61AA" d="M0.103,60.327l1.978-5.149h0.734l2.107,5.149H4.146l-0.601-1.56H1.392l-0.565,1.56H0.103z
			 M1.588,58.213h1.746l-0.537-1.426c-0.164-0.433-0.286-0.789-0.366-1.068c-0.065,0.33-0.158,0.658-0.277,0.983L1.588,58.213z"/>
		<path id="XMLID_8_" fill="#0B61AA" d="M7.052,58.673l0.643-0.056c0.03,0.257,0.101,0.469,0.212,0.634s0.284,0.299,0.518,0.4
			c0.234,0.102,0.498,0.153,0.791,0.153c0.26,0,0.489-0.039,0.688-0.116c0.199-0.077,0.347-0.183,0.444-0.318
			s0.146-0.282,0.146-0.441c0-0.162-0.047-0.303-0.141-0.423c-0.093-0.121-0.248-0.222-0.463-0.304
			c-0.138-0.054-0.444-0.138-0.917-0.251C8.5,57.837,8.169,57.73,7.979,57.629C7.733,57.5,7.55,57.341,7.43,57.15
			s-0.181-0.404-0.181-0.641c0-0.26,0.074-0.502,0.222-0.729c0.147-0.226,0.363-0.397,0.646-0.515s0.598-0.176,0.945-0.176
			c0.382,0,0.718,0.062,1.01,0.185c0.292,0.123,0.516,0.304,0.672,0.542c0.157,0.239,0.241,0.509,0.253,0.812l-0.653,0.049
			c-0.035-0.326-0.154-0.571-0.356-0.738c-0.203-0.166-0.502-0.25-0.897-0.25c-0.412,0-0.712,0.076-0.901,0.227
			C8,56.068,7.906,56.25,7.906,56.463c0,0.185,0.066,0.337,0.2,0.457c0.131,0.12,0.474,0.242,1.028,0.367
			c0.554,0.125,0.934,0.235,1.14,0.329c0.3,0.138,0.521,0.313,0.664,0.525c0.143,0.212,0.214,0.456,0.214,0.732
			c0,0.274-0.078,0.532-0.235,0.774c-0.157,0.242-0.382,0.431-0.676,0.565c-0.294,0.135-0.625,0.202-0.992,0.202
			c-0.466,0-0.857-0.068-1.172-0.204c-0.315-0.136-0.562-0.34-0.741-0.613C7.156,59.326,7.062,59.017,7.052,58.673z"/>
		<path id="XMLID_10_" fill="#0B61AA" d="M14.22,59.867c-0.234,0.199-0.459,0.339-0.676,0.421s-0.449,0.123-0.697,0.123
			c-0.41,0-0.725-0.1-0.945-0.3s-0.33-0.456-0.33-0.768c0-0.183,0.042-0.35,0.125-0.5c0.083-0.151,0.192-0.272,0.327-0.364
			s0.286-0.16,0.455-0.207c0.124-0.033,0.311-0.064,0.562-0.095c0.51-0.061,0.886-0.134,1.127-0.218
			c0.002-0.086,0.003-0.142,0.003-0.165c0-0.257-0.06-0.439-0.179-0.544c-0.162-0.143-0.401-0.214-0.72-0.214
			c-0.298,0-0.517,0.052-0.659,0.156c-0.142,0.104-0.247,0.289-0.314,0.553l-0.618-0.084c0.056-0.265,0.148-0.478,0.277-0.641
			c0.129-0.163,0.315-0.288,0.559-0.375c0.244-0.088,0.525-0.132,0.847-0.132c0.318,0,0.577,0.037,0.776,0.112
			c0.199,0.075,0.346,0.169,0.439,0.283c0.093,0.114,0.159,0.257,0.196,0.43c0.021,0.108,0.032,0.302,0.032,0.583v0.843
			c0,0.588,0.014,0.959,0.041,1.115s0.08,0.305,0.16,0.448h-0.66C14.28,60.196,14.238,60.042,14.22,59.867z M14.167,58.455
			c-0.229,0.094-0.574,0.173-1.033,0.239c-0.26,0.038-0.444,0.08-0.552,0.126c-0.107,0.047-0.19,0.115-0.249,0.206
			c-0.059,0.09-0.088,0.19-0.088,0.3c0,0.168,0.064,0.309,0.191,0.421s0.314,0.168,0.56,0.168c0.244,0,0.46-0.053,0.65-0.16
			c0.19-0.106,0.329-0.252,0.418-0.438c0.068-0.143,0.102-0.354,0.102-0.632V58.455z"/>
		<path id="XMLID_14_" fill="#0B61AA" d="M15.57,60.327v-3.73h0.569v0.531c0.274-0.41,0.67-0.615,1.188-0.615
			c0.225,0,0.431,0.04,0.62,0.121c0.188,0.081,0.33,0.187,0.423,0.318c0.094,0.131,0.159,0.287,0.197,0.467
			c0.023,0.117,0.035,0.322,0.035,0.615v2.293h-0.632v-2.269c0-0.258-0.024-0.45-0.074-0.578c-0.049-0.128-0.136-0.229-0.262-0.306
			c-0.125-0.076-0.272-0.114-0.44-0.114c-0.27,0-0.502,0.085-0.697,0.256c-0.196,0.171-0.293,0.495-0.293,0.973v2.037H15.57z"/>
		<path id="XMLID_16_" fill="#0B61AA" d="M21.826,60.327v-0.471c-0.236,0.37-0.584,0.555-1.043,0.555
			c-0.297,0-0.571-0.082-0.82-0.246c-0.25-0.164-0.442-0.393-0.58-0.687c-0.137-0.294-0.206-0.632-0.206-1.014
			c0-0.372,0.062-0.71,0.187-1.013c0.124-0.303,0.31-0.536,0.558-0.697c0.249-0.162,0.526-0.242,0.833-0.242
			c0.225,0,0.425,0.047,0.601,0.142c0.176,0.095,0.319,0.218,0.429,0.371v-1.848h0.629v5.149H21.826z M19.827,58.465
			c0,0.478,0.101,0.835,0.302,1.072c0.201,0.236,0.439,0.354,0.713,0.354c0.276,0,0.511-0.113,0.705-0.339
			c0.193-0.226,0.29-0.571,0.29-1.035c0-0.51-0.099-0.885-0.295-1.124c-0.197-0.239-0.439-0.358-0.727-0.358
			c-0.281,0-0.516,0.115-0.705,0.344S19.827,57.972,19.827,58.465z"/>
		<path id="XMLID_24_" fill="#0B61AA" d="M22.898,58.462c0-0.691,0.192-1.203,0.576-1.535c0.321-0.276,0.712-0.414,1.173-0.414
			c0.513,0,0.932,0.168,1.258,0.504c0.325,0.336,0.488,0.8,0.488,1.393c0,0.48-0.072,0.858-0.216,1.133
			c-0.144,0.275-0.354,0.489-0.628,0.641c-0.275,0.152-0.576,0.229-0.901,0.229c-0.522,0-0.944-0.167-1.266-0.502
			C23.059,59.574,22.898,59.092,22.898,58.462z M23.548,58.462c0,0.478,0.104,0.835,0.312,1.073s0.471,0.356,0.787,0.356
			c0.314,0,0.575-0.12,0.784-0.358c0.208-0.239,0.312-0.603,0.312-1.092c0-0.461-0.105-0.811-0.314-1.048s-0.47-0.356-0.782-0.356
			c-0.316,0-0.578,0.118-0.787,0.354C23.652,57.627,23.548,57.984,23.548,58.462z"/>
		<path id="XMLID_27_" fill="#0B61AA" d="M26.527,60.327v-0.513l2.375-2.726c-0.269,0.014-0.507,0.021-0.713,0.021h-1.521v-0.513
			h3.049v0.418l-2.02,2.368l-0.39,0.432c0.284-0.021,0.549-0.032,0.797-0.032h1.725v0.544H26.527z"/>
		<path id="XMLID_29_" fill="#0B61AA" d="M32.279,60.327v-5.149h1.932c0.393,0,0.708,0.052,0.946,0.156
			c0.238,0.104,0.424,0.265,0.559,0.481c0.135,0.216,0.202,0.443,0.202,0.68c0,0.22-0.06,0.427-0.179,0.622
			c-0.12,0.194-0.3,0.351-0.541,0.471c0.312,0.091,0.551,0.247,0.718,0.467s0.251,0.48,0.251,0.78c0,0.241-0.051,0.465-0.152,0.672
			c-0.102,0.208-0.228,0.367-0.378,0.479c-0.15,0.113-0.338,0.197-0.563,0.255c-0.226,0.057-0.503,0.086-0.831,0.086H32.279z
			 M32.96,57.341h1.113c0.302,0,0.519-0.02,0.65-0.06c0.173-0.051,0.304-0.137,0.392-0.256s0.132-0.269,0.132-0.45
			c0-0.171-0.041-0.321-0.123-0.451s-0.199-0.219-0.351-0.267c-0.152-0.048-0.414-0.072-0.784-0.072H32.96V57.341z M32.96,59.72
			h1.282c0.22,0,0.375-0.008,0.464-0.025c0.157-0.028,0.288-0.075,0.394-0.141c0.105-0.065,0.192-0.161,0.26-0.286
			c0.068-0.125,0.102-0.27,0.102-0.434c0-0.192-0.049-0.359-0.147-0.5c-0.098-0.142-0.234-0.241-0.409-0.299
			c-0.174-0.057-0.425-0.086-0.753-0.086h-1.19V59.72z"/>
		<path id="XMLID_35_" fill="#0B61AA" d="M36.751,60.327v-3.73h0.569v0.565c0.145-0.264,0.279-0.439,0.402-0.523
			c0.123-0.084,0.258-0.126,0.406-0.126c0.213,0,0.43,0.068,0.65,0.204l-0.218,0.586c-0.155-0.091-0.309-0.137-0.464-0.137
			c-0.138,0-0.262,0.042-0.372,0.125c-0.11,0.083-0.188,0.198-0.235,0.346c-0.07,0.225-0.105,0.471-0.105,0.737v1.953H36.751z"/>
		<path id="XMLID_70_" fill="#0B61AA" d="M41.437,59.867c-0.234,0.199-0.46,0.339-0.676,0.421c-0.217,0.082-0.449,0.123-0.697,0.123
			c-0.41,0-0.725-0.1-0.945-0.3c-0.22-0.2-0.33-0.456-0.33-0.768c0-0.183,0.042-0.35,0.125-0.5c0.083-0.151,0.192-0.272,0.327-0.364
			s0.286-0.16,0.455-0.207c0.125-0.033,0.312-0.064,0.562-0.095c0.511-0.061,0.887-0.134,1.128-0.218
			c0.002-0.086,0.003-0.142,0.003-0.165c0-0.257-0.06-0.439-0.179-0.544c-0.162-0.143-0.402-0.214-0.72-0.214
			c-0.297,0-0.517,0.052-0.659,0.156c-0.142,0.104-0.246,0.289-0.314,0.553l-0.619-0.084c0.057-0.265,0.149-0.478,0.278-0.641
			c0.129-0.163,0.315-0.288,0.559-0.375c0.243-0.088,0.525-0.132,0.846-0.132c0.319,0,0.577,0.037,0.776,0.112
			c0.199,0.075,0.346,0.169,0.439,0.283c0.094,0.114,0.159,0.257,0.197,0.43c0.021,0.108,0.032,0.302,0.032,0.583v0.843
			c0,0.588,0.014,0.959,0.041,1.115s0.08,0.305,0.16,0.448h-0.66C41.498,60.196,41.456,60.042,41.437,59.867z M41.384,58.455
			c-0.229,0.094-0.574,0.173-1.033,0.239c-0.26,0.038-0.444,0.08-0.552,0.126c-0.107,0.047-0.191,0.115-0.249,0.206
			c-0.059,0.09-0.088,0.19-0.088,0.3c0,0.168,0.063,0.309,0.191,0.421c0.127,0.112,0.314,0.168,0.56,0.168
			c0.244,0,0.46-0.053,0.65-0.16s0.329-0.252,0.418-0.438c0.068-0.143,0.102-0.354,0.102-0.632V58.455z"/>
		<path id="XMLID_80_" fill="#0B61AA" d="M42.788,60.327v-3.73h0.569v0.531c0.274-0.41,0.67-0.615,1.188-0.615
			c0.225,0,0.431,0.04,0.62,0.121c0.188,0.081,0.329,0.187,0.423,0.318s0.159,0.287,0.197,0.467
			c0.023,0.117,0.035,0.322,0.035,0.615v2.293h-0.632v-2.269c0-0.258-0.024-0.45-0.074-0.578c-0.049-0.128-0.136-0.229-0.262-0.306
			s-0.272-0.114-0.441-0.114c-0.269,0-0.501,0.085-0.697,0.256c-0.195,0.171-0.293,0.495-0.293,0.973v2.037H42.788z"/>
		<path id="XMLID_82_" fill="#0B61AA" d="M48.985,60.327v-0.471c-0.236,0.37-0.584,0.555-1.043,0.555
			c-0.297,0-0.571-0.082-0.82-0.246c-0.25-0.164-0.442-0.393-0.58-0.687c-0.137-0.294-0.206-0.632-0.206-1.014
			c0-0.372,0.062-0.71,0.187-1.013c0.124-0.303,0.31-0.536,0.558-0.697c0.249-0.162,0.526-0.242,0.833-0.242
			c0.225,0,0.425,0.047,0.601,0.142c0.176,0.095,0.319,0.218,0.429,0.371v-1.848h0.629v5.149H48.985z M46.987,58.465
			c0,0.478,0.101,0.835,0.302,1.072c0.201,0.236,0.439,0.354,0.713,0.354c0.276,0,0.511-0.113,0.705-0.339
			c0.193-0.226,0.29-0.571,0.29-1.035c0-0.51-0.099-0.885-0.295-1.124c-0.197-0.239-0.439-0.358-0.727-0.358
			c-0.281,0-0.516,0.115-0.705,0.344S46.987,57.972,46.987,58.465z"/>
	</g>
</g>
</svg>
