<?xml version="1.0" encoding="utf-8"?>
<!-- Generator: Adobe Illustrator 25.0.1, SVG Export Plug-In . SVG Version: 6.00 Build 0)  -->
<svg version="1.1" id="TauroImplant" xmlns="http://www.w3.org/2000/svg" xmlns:xlink="http://www.w3.org/1999/xlink" x="0px"
	 y="0px" viewBox="0 0 626.554 104" enable-background="new 0 0 626.554 104" xml:space="preserve">
<g id="Implant-light">
	<path fill="#00ABAB" d="M288.383,78.607V0h5.962v78.607H288.383z"/>
	<path fill="#00ABAB" d="M383.992,78.607V45.596c0-10.267-5.079-15.898-14.683-15.898c-9.274,0-15.015,5.741-15.015,14.904v34.005
		h-5.631V45.596c0-10.267-5.079-15.898-14.683-15.898c-9.606,0-15.015,5.741-15.015,15.898v33.011h-5.631V25.393h5.631v6.293
		c3.974-4.637,9.273-6.955,15.787-6.955c7.949,0,13.91,3.422,17.112,9.715c3.975-6.293,10.157-9.715,18.107-9.715
		c5.851,0,10.599,1.877,14.021,5.078c3.644,3.533,5.631,8.501,5.631,14.794v34.005H383.992z"/>
	<path fill="#00ABAB" d="M441.404,74.633c-2.76,2.76-7.397,4.637-13.027,4.637c-6.073,0-11.04-1.325-15.788-7.507V104h-5.631V25.393
		h5.631v6.845c4.747-6.183,9.715-7.507,15.788-7.507c5.63,0,10.267,1.877,13.027,4.637c5.41,5.41,6.845,14.242,6.845,22.633
		C448.249,60.391,446.814,69.223,441.404,74.633z M427.604,29.698c-13.027,0-15.015,11.261-15.015,22.301
		s1.987,22.302,15.015,22.302c13.027,0,15.015-11.261,15.015-22.302S440.631,29.698,427.604,29.698z"/>
	<path fill="#00ABAB" d="M476.403,78.607c-8.722,0-12.806-5.41-12.806-13.8V0h5.63v64.697c0,6.072,1.877,8.942,8.17,8.942h3.864
		v4.968H476.403z"/>
	<path fill="#00ABAB" d="M525.864,78.607v-5.3c-4.527,4.527-8.722,5.963-16.229,5.963c-7.95,0-12.255-1.325-15.677-4.858
		c-2.54-2.539-3.864-6.403-3.864-10.378c0-9.716,6.955-15.346,18.548-15.346h17.223v-5.962c0-8.501-4.085-13.027-15.015-13.027
		c-7.507,0-11.261,1.877-14.684,6.734l-4.085-3.533c4.526-6.293,10.046-8.17,18.769-8.17c14.132,0,20.645,6.293,20.645,17.443
		v36.433H525.864z M525.864,53.214h-16.56c-9.053,0-13.58,3.533-13.58,10.71c0,7.066,4.196,10.378,13.911,10.378
		c4.857,0,9.383-0.441,13.248-4.085c1.987-1.877,2.981-5.3,2.981-10.157V53.214z"/>
	<path fill="#00ABAB" d="M584.488,78.607V45.596c0-10.267-5.079-15.898-14.683-15.898c-9.606,0-15.015,5.741-15.015,15.898v33.011
		h-5.631V25.393h5.631v6.293c3.974-4.637,9.163-6.955,15.677-6.955c5.851,0,10.599,1.656,14.132,5.078
		c3.643,3.533,5.52,8.501,5.52,14.794v34.005H584.488z"/>
	<path fill="#00ABAB" d="M621.695,78.607c-8.39,0-12.806-5.851-12.806-13.91V29.588h-7.287v-4.195h7.287V8.39h5.63v17.002h12.034
		v4.195h-12.034v35.219c0,5.63,2.539,8.832,8.17,8.832h3.864v4.968H621.695z"/>
</g>
<g id="Tauro-bold">
	<path fill="#00ABAB" d="M35.881,13.69v64.917H20.535V13.69H0V0h56.416v13.69H35.881z"/>
	<path fill="#00ABAB" d="M87.332,78.607v-4.968c-3.864,3.864-7.507,5.52-14.132,5.52c-6.514,0-11.372-1.766-14.684-5.079
		c-3.091-3.202-4.747-7.839-4.747-12.916c0-9.164,6.293-16.671,19.873-16.671h13.359v-2.87c0-6.293-3.091-9.053-10.709-9.053
		c-5.189,0-7.949,1.436-11.04,4.968l-9.053-8.943c5.63-6.182,11.04-8.17,20.645-8.17c16.229,0,24.51,6.845,24.51,20.314v37.868
		H87.332z M87.001,54.318h-10.93c-5.741,0-8.501,2.319-8.501,6.624c0,3.974,2.76,6.514,8.722,6.514c3.533,0,6.072-0.442,8.501-2.76
		c1.656-1.436,2.208-3.644,2.208-7.287V54.318z"/>
	<path fill="#00ABAB" d="M148.829,78.607v-5.3c-3.754,3.975-9.053,5.963-14.352,5.963c-5.741,0-10.378-1.877-13.58-5.079
		c-4.637-4.637-5.851-10.047-5.851-16.34V21.087h14.352v34.777c0,7.839,4.968,10.489,9.495,10.489c4.527,0,9.605-2.65,9.605-10.489
		V21.087h14.352v57.52H148.829z"/>
	<path fill="#00ABAB" d="M209.111,36.764c-2.208-2.208-4.085-3.423-7.618-3.423c-4.416,0-9.274,3.312-9.274,10.599v34.666h-14.352
		v-57.52h14.021v5.52c2.761-3.312,8.281-6.182,14.463-6.182c5.631,0,9.605,1.435,13.58,5.41L209.111,36.764z"/>
	<path fill="#00ABAB" d="M263.43,72.204c-3.644,3.753-9.384,7.066-17.886,7.066c-8.501,0-14.132-3.313-17.775-7.066
		c-5.189-5.52-6.514-12.034-6.514-22.412c0-10.378,1.325-16.782,6.514-22.302c3.643-3.754,9.274-7.066,17.775-7.066
		c8.501,0,14.242,3.202,17.886,7.066c5.189,5.52,6.513,11.923,6.513,22.302C269.943,60.17,268.729,66.794,263.43,72.204z
		 M252.279,35.881c-1.656-1.656-3.864-2.539-6.735-2.539c-2.76,0-4.968,0.883-6.624,2.539c-2.981,2.871-3.312,8.06-3.312,13.911
		c0,5.962,0.331,11.15,3.312,14.021c1.656,1.657,3.864,2.54,6.624,2.54c2.871,0,5.079-0.883,6.735-2.54
		c2.981-2.87,3.312-8.059,3.312-14.021C255.591,43.941,255.26,38.751,252.279,35.881z"/>
</g>
</svg>
